<svg width="36" height="36" viewBox="0 0 36 36" fill="none" xmlns="http://www.w3.org/2000/svg">
<rect width="36" height="36" rx="8" fill="#3B82F6"/>
<path d="M10 28C9.45 28 8.97917 27.8042 8.5875 27.4125C8.19583 27.0208 8 26.55 8 26V15C8 14.45 8.19583 13.9792 8.5875 13.5875C8.97917 13.1958 9.45 13 10 13H15V10C15 9.45 15.1958 8.97917 15.5875 8.5875C15.9792 8.19583 16.45 8 17 8H19C19.55 8 20.0208 8.19583 20.4125 8.5875C20.8042 8.97917 21 9.45 21 10V13H26C26.55 13 27.0208 13.1958 27.4125 13.5875C27.8042 13.9792 28 14.45 28 15V26C28 26.55 27.8042 27.0208 27.4125 27.4125C27.0208 27.8042 26.55 28 26 28H10ZM10 26H26V15H21C21 15.55 20.8042 16.0208 20.4125 16.4125C20.0208 16.8042 19.55 17 19 17H17C16.45 17 15.9792 16.8042 15.5875 16.4125C15.1958 16.0208 15 15.55 15 15H10V26ZM12 24H18V23.55C18 23.2667 17.9208 23.0042 17.7625 22.7625C17.6042 22.5208 17.3833 22.3333 17.1 22.2C16.7667 22.05 16.4292 21.9375 16.0875 21.8625C15.7458 21.7875 15.3833 21.75 15 21.75C14.6167 21.75 14.2542 21.7875 13.9125 21.8625C13.5708 21.9375 13.2333 22.05 12.9 22.2C12.6167 22.3333 12.3958 22.5208 12.2375 22.7625C12.0792 23.0042 12 23.2667 12 23.55V24ZM20 22.5H24V21H20V22.5ZM15 21C15.4167 21 15.7708 20.8542 16.0625 20.5625C16.3542 20.2708 16.5 19.9167 16.5 19.5C16.5 19.0833 16.3542 18.7292 16.0625 18.4375C15.7708 18.1458 15.4167 18 15 18C14.5833 18 14.2292 18.1458 13.9375 18.4375C13.6458 18.7292 13.5 19.0833 13.5 19.5C13.5 19.9167 13.6458 20.2708 13.9375 20.5625C14.2292 20.8542 14.5833 21 15 21ZM20 19.5H24V18H20V19.5ZM17 15H19V10H17V15Z" fill="white"/>
</svg>
