<svg width="64" height="64" viewBox="0 0 64 64" fill="none" xmlns="http://www.w3.org/2000/svg">
<rect x="12" y="2" width="40" height="40" rx="8" fill="#ECF6F8"/>
<g filter="url(#filter0_dd_337_1493)">
<rect x="12" y="2" width="40" height="40" rx="8" fill="white" fill-opacity="0.01" shape-rendering="crispEdges"/>
</g>
<path d="M23 21V13H31V21H23ZM23 31V23H31V31H23ZM33 21V13H41V21H33ZM33 31V23H41V31H33ZM25 19H29V15H25V19ZM35 19H39V15H35V19ZM35 29H39V25H35V29ZM25 29H29V25H25V29Z" fill="#000F0D"/>
<defs>
<filter id="filter0_dd_337_1493" x="0" y="0" width="64" height="64" filterUnits="userSpaceOnUse" color-interpolation-filters="sRGB">
<feFlood flood-opacity="0" result="BackgroundImageFix"/>
<feColorMatrix in="SourceAlpha" type="matrix" values="0 0 0 0 0 0 0 0 0 0 0 0 0 0 0 0 0 0 127 0" result="hardAlpha"/>
<feMorphology radius="4" operator="erode" in="SourceAlpha" result="effect1_dropShadow_337_1493"/>
<feOffset dy="4"/>
<feGaussianBlur stdDeviation="3"/>
<feComposite in2="hardAlpha" operator="out"/>
<feColorMatrix type="matrix" values="0 0 0 0 0 0 0 0 0 0 0 0 0 0 0 0 0 0 0.1 0"/>
<feBlend mode="normal" in2="BackgroundImageFix" result="effect1_dropShadow_337_1493"/>
<feColorMatrix in="SourceAlpha" type="matrix" values="0 0 0 0 0 0 0 0 0 0 0 0 0 0 0 0 0 0 127 0" result="hardAlpha"/>
<feMorphology radius="3" operator="erode" in="SourceAlpha" result="effect2_dropShadow_337_1493"/>
<feOffset dy="10"/>
<feGaussianBlur stdDeviation="7.5"/>
<feComposite in2="hardAlpha" operator="out"/>
<feColorMatrix type="matrix" values="0 0 0 0 0 0 0 0 0 0 0 0 0 0 0 0 0 0 0.1 0"/>
<feBlend mode="normal" in2="effect1_dropShadow_337_1493" result="effect2_dropShadow_337_1493"/>
<feBlend mode="normal" in="SourceGraphic" in2="effect2_dropShadow_337_1493" result="shape"/>
</filter>
</defs>
</svg>
