<svg width="36" height="36" viewBox="0 0 36 36" fill="none" xmlns="http://www.w3.org/2000/svg">
<rect width="35.9688" height="35.9688" rx="8" fill="#2563EB"/>
<path d="M26 8H9.96875C8.98438 8 8 8.89062 8 9.96875V13.0156C8 13.7188 8.42188 14.3281 8.98438 14.7031V26C8.98438 27.0781 10.0625 27.9688 11 27.9688H24.9688C25.9062 27.9688 26.9844 27.0781 26.9844 26V14.7031C27.5469 14.3281 27.9688 13.7188 27.9688 13.0156V9.96875C27.9688 8.89062 26.9844 8 26 8ZM20 20H15.9688C15.4531 20 14.9844 19.5312 14.9844 18.9688C14.9844 18.4531 15.4531 17.9844 15.9688 17.9844H20C20.5156 17.9844 20.9844 18.4531 20.9844 18.9688C20.9844 19.5312 20.5156 20 20 20ZM26 12.9688H9.96875V9.96875H26V12.9688Z" fill="white"/>
</svg>
