<svg width="64" height="64" viewBox="0 0 64 64" fill="none" xmlns="http://www.w3.org/2000/svg">
<rect x="12" y="2" width="40" height="40" rx="8" fill="#9D3017"/>
<g filter="url(#filter0_dd_390_5443)">
<rect x="12" y="2" width="40" height="40" rx="8" fill="white" fill-opacity="0.01" shape-rendering="crispEdges"/>
</g>
<path d="M21 31.5L32 12.5L43 31.5H21ZM24.45 29.5H39.55L32 16.5L24.45 29.5ZM32 28.5C32.2833 28.5 32.5208 28.4042 32.7125 28.2125C32.9042 28.0208 33 27.7833 33 27.5C33 27.2167 32.9042 26.9792 32.7125 26.7875C32.5208 26.5958 32.2833 26.5 32 26.5C31.7167 26.5 31.4792 26.5958 31.2875 26.7875C31.0958 26.9792 31 27.2167 31 27.5C31 27.7833 31.0958 28.0208 31.2875 28.2125C31.4792 28.4042 31.7167 28.5 32 28.5ZM31 25.5H33V20.5H31V25.5Z" fill="white"/>
<defs>
<filter id="filter0_dd_390_5443" x="0" y="0" width="64" height="64" filterUnits="userSpaceOnUse" color-interpolation-filters="sRGB">
<feFlood flood-opacity="0" result="BackgroundImageFix"/>
<feColorMatrix in="SourceAlpha" type="matrix" values="0 0 0 0 0 0 0 0 0 0 0 0 0 0 0 0 0 0 127 0" result="hardAlpha"/>
<feMorphology radius="4" operator="erode" in="SourceAlpha" result="effect1_dropShadow_390_5443"/>
<feOffset dy="4"/>
<feGaussianBlur stdDeviation="3"/>
<feComposite in2="hardAlpha" operator="out"/>
<feColorMatrix type="matrix" values="0 0 0 0 0 0 0 0 0 0 0 0 0 0 0 0 0 0 0.1 0"/>
<feBlend mode="normal" in2="BackgroundImageFix" result="effect1_dropShadow_390_5443"/>
<feColorMatrix in="SourceAlpha" type="matrix" values="0 0 0 0 0 0 0 0 0 0 0 0 0 0 0 0 0 0 127 0" result="hardAlpha"/>
<feMorphology radius="3" operator="erode" in="SourceAlpha" result="effect2_dropShadow_390_5443"/>
<feOffset dy="10"/>
<feGaussianBlur stdDeviation="7.5"/>
<feComposite in2="hardAlpha" operator="out"/>
<feColorMatrix type="matrix" values="0 0 0 0 0 0 0 0 0 0 0 0 0 0 0 0 0 0 0.1 0"/>
<feBlend mode="normal" in2="effect1_dropShadow_390_5443" result="effect2_dropShadow_390_5443"/>
<feBlend mode="normal" in="SourceGraphic" in2="effect2_dropShadow_390_5443" result="shape"/>
</filter>
</defs>
</svg>
