<svg width="9" height="9" viewBox="0 0 9 9" fill="none" xmlns="http://www.w3.org/2000/svg">
<path d="M7.16298 4.57031C7.16298 4.43359 7.18251 4.29688 7.18251 4.16016C7.18251 4.02344 7.16298 3.88672 7.16298 3.75L8.04188 3.06641C8.12001 3.00781 8.13954 2.89062 8.08094 2.79297L7.2411 1.34766C7.20204 1.28906 7.14344 1.25 7.06532 1.25C7.04579 1.25 7.00673 1.25 6.98719 1.26953L5.95204 1.67969C5.73719 1.52344 5.50282 1.36719 5.24891 1.26953L5.09266 0.175781C5.07313 0.078125 4.99501 0 4.89735 0H3.21766C3.12001 0 3.04188 0.078125 3.02235 0.175781L2.8661 1.26953C2.61219 1.36719 2.37782 1.52344 2.16298 1.67969L1.12782 1.26953C1.08876 1.25 1.06923 1.25 1.04969 1.25C0.971569 1.25 0.912975 1.28906 0.873913 1.34766L0.034069 2.79297C-0.0245247 2.89062 -0.00499349 3.00781 0.0731315 3.06641L0.952038 3.75C0.952038 3.88672 0.932507 4.02344 0.932507 4.16016C0.932507 4.29688 0.952038 4.43359 0.952038 4.57031L0.0731315 5.25391C-0.00499349 5.3125 -0.0245247 5.42969 0.034069 5.52734L0.873913 6.97266C0.912975 7.03125 0.971569 7.07031 1.04969 7.07031C1.06923 7.07031 1.10829 7.07031 1.12782 7.05078L2.16298 6.64062C2.37782 6.79688 2.61219 6.95312 2.8661 7.05078L3.02235 8.14453C3.04188 8.24219 3.12001 8.32031 3.21766 8.32031H4.89735C4.99501 8.32031 5.07313 8.24219 5.09266 8.14453L5.24891 7.05078C5.50282 6.95312 5.73719 6.79688 5.95204 6.64062L6.98719 7.05078C7.02626 7.07031 7.04579 7.07031 7.06532 7.07031C7.14344 7.07031 7.20204 7.03125 7.2411 6.97266L8.08094 5.52734C8.13954 5.42969 8.12001 5.3125 8.04188 5.25391L7.16298 4.57031ZM6.32313 3.84766C6.34266 3.98438 6.34266 4.08203 6.34266 4.16016C6.34266 4.23828 6.34266 4.33594 6.32313 4.47266L6.26454 4.94141L6.63563 5.23438L7.08485 5.58594L6.79188 6.07422L6.26454 5.85938L5.83485 5.70312L5.46376 5.97656C5.28798 6.11328 5.11219 6.21094 4.93641 6.28906L4.50673 6.46484L4.4286 6.93359L4.35048 7.5H3.76454L3.68641 6.93359L3.62782 6.46484L3.1786 6.28906C3.00282 6.21094 2.82704 6.11328 2.67079 5.97656L2.28016 5.70312L1.85048 5.87891L1.32313 6.09375L1.03016 5.58594L1.47938 5.23438L1.85048 4.94141L1.79188 4.47266C1.77235 4.33594 1.77235 4.23828 1.77235 4.16016C1.77235 4.08203 1.77235 3.98438 1.79188 3.84766L1.85048 3.37891L1.47938 3.08594L1.03016 2.73438L1.32313 2.24609L1.85048 2.46094L2.28016 2.61719L2.65126 2.34375C2.82704 2.20703 3.00282 2.10938 3.1786 2.03125L3.60829 1.85547L3.68641 1.38672L3.76454 0.820312H4.35048L4.4286 1.38672L4.48719 1.85547L4.93641 2.03125C5.11219 2.10938 5.28798 2.20703 5.44423 2.34375L5.81532 2.61719L6.26454 2.44141L6.79188 2.22656L7.08485 2.73438L6.63563 3.08594L6.26454 3.37891L6.32313 3.84766ZM4.05751 2.5C3.13954 2.5 2.39735 3.24219 2.39735 4.16016C2.39735 5.07812 3.13954 5.82031 4.05751 5.82031C4.97548 5.82031 5.71766 5.07812 5.71766 4.16016C5.71766 3.24219 4.97548 2.5 4.05751 2.5ZM4.05751 5C3.60829 5 3.21766 4.60938 3.21766 4.16016C3.21766 3.71094 3.60829 3.32031 4.05751 3.32031C4.50673 3.32031 4.89735 3.71094 4.89735 4.16016C4.89735 4.60938 4.50673 5 4.05751 5Z" fill="white"/>
</svg>
