<svg width="14" height="14" viewBox="0 0 14 14" fill="none" xmlns="http://www.w3.org/2000/svg">
<path d="M3.74561 11C3.95687 11 4.13542 10.9285 4.28125 10.7856C4.42708 10.6427 4.5 10.4656 4.5 10.2544C4.5 10.0431 4.42854 9.86458 4.28564 9.71875C4.14273 9.57292 3.96564 9.5 3.75439 9.5C3.54313 9.5 3.36458 9.57145 3.21875 9.71436C3.07292 9.85727 3 10.0344 3 10.2456C3 10.4569 3.07145 10.6354 3.21436 10.7812C3.35727 10.9271 3.53436 11 3.74561 11ZM3.74561 7.75C3.95687 7.75 4.13542 7.67854 4.28125 7.53564C4.42708 7.39273 4.5 7.21564 4.5 7.00439C4.5 6.79313 4.42854 6.61458 4.28564 6.46875C4.14273 6.32292 3.96564 6.25 3.75439 6.25C3.54313 6.25 3.36458 6.32146 3.21875 6.46436C3.07292 6.60727 3 6.78436 3 6.99561C3 7.20687 3.07145 7.38542 3.21436 7.53125C3.35727 7.67708 3.53436 7.75 3.74561 7.75ZM3.74561 4.5C3.95687 4.5 4.13542 4.42855 4.28125 4.28564C4.42708 4.14273 4.5 3.96564 4.5 3.75439C4.5 3.54313 4.42854 3.36458 4.28564 3.21875C4.14273 3.07292 3.96564 3 3.75439 3C3.54313 3 3.36458 3.07145 3.21875 3.21436C3.07292 3.35727 3 3.53436 3 3.74561C3 3.95687 3.07145 4.13542 3.21436 4.28125C3.35727 4.42708 3.53436 4.5 3.74561 4.5ZM6 11H11V9.5H6V11ZM6 7.75H11V6.25H6V7.75ZM6 4.5H11V3H6V4.5ZM1.5 14C1.0875 14 0.734375 13.8531 0.440625 13.5594C0.146875 13.2656 0 12.9125 0 12.5V1.5C0 1.0875 0.146875 0.734375 0.440625 0.440626C0.734375 0.146875 1.0875 0 1.5 0H12.5C12.9125 0 13.2656 0.146875 13.5594 0.440626C13.8531 0.734375 14 1.0875 14 1.5V12.5C14 12.9125 13.8531 13.2656 13.5594 13.5594C13.2656 13.8531 12.9125 14 12.5 14H1.5ZM1.5 12.5H12.5V1.5H1.5V12.5ZM1.5 1.5V12.5V1.5Z" fill="#3B82F6"/>
</svg>
