<svg width="15" height="15" viewBox="0 0 15 15" fill="none" xmlns="http://www.w3.org/2000/svg">
<path d="M13.5 0H1.47656C0.738281 0 0 0.667969 0 1.47656V3.76172C0 4.28906 0.316406 4.74609 0.738281 5.02734V13.5C0.738281 14.3086 1.54688 14.9766 2.25 14.9766H12.7266C13.4297 14.9766 14.2383 14.3086 14.2383 13.5V5.02734C14.6602 4.74609 14.9766 4.28906 14.9766 3.76172V1.47656C14.9766 0.667969 14.2383 0 13.5 0ZM12.7266 13.5H2.25V5.23828H12.7266V13.5ZM13.5 3.72656H1.47656V1.47656H13.5V3.72656ZM5.23828 7.48828H9.73828V9H5.23828V7.48828Z" fill="#0F172A"/>
</svg>
